<svg width="148" height="78" viewBox="0 0 148 78" fill="none" xmlns="http://www.w3.org/2000/svg">
<path d="M26.3274 35.7109H22.2834C22.2095 35.1877 22.0587 34.723 21.831 34.3168C21.6032 33.9044 21.3108 33.5535 20.9538 33.2642C20.5968 32.9749 20.1844 32.7533 19.7166 32.5994C19.255 32.4455 18.7533 32.3686 18.2116 32.3686C17.233 32.3686 16.3804 32.6117 15.6541 33.098C14.9278 33.5781 14.3646 34.2798 13.9645 35.2031C13.5644 36.1203 13.3643 37.2344 13.3643 38.5455C13.3643 39.8935 13.5644 41.026 13.9645 41.9432C14.3707 42.8603 14.937 43.5528 15.6634 44.0206C16.3897 44.4884 17.2299 44.7223 18.1839 44.7223C18.7195 44.7223 19.215 44.6515 19.6705 44.5099C20.1321 44.3684 20.5414 44.1622 20.8984 43.8913C21.2554 43.6143 21.5509 43.2789 21.7848 42.8849C22.0249 42.491 22.1911 42.0417 22.2834 41.5369L26.3274 41.5554C26.2228 42.4233 25.9612 43.2604 25.5426 44.0668C25.1302 44.867 24.5732 45.584 23.8714 46.218C23.1759 46.8459 22.3449 47.3445 21.3786 47.7138C20.4183 48.0769 19.3319 48.2585 18.1193 48.2585C16.4328 48.2585 14.9247 47.8769 13.5952 47.1136C12.2718 46.3504 11.2254 45.2455 10.456 43.799C9.69271 42.3525 9.31108 40.6013 9.31108 38.5455C9.31108 36.4834 9.69886 34.7292 10.4744 33.2827C11.25 31.8362 12.3026 30.7344 13.6321 29.9773C14.9616 29.214 16.4574 28.8324 18.1193 28.8324C19.215 28.8324 20.2306 28.9863 21.1662 29.294C22.108 29.6018 22.942 30.0511 23.6683 30.642C24.3946 31.2268 24.9856 31.9439 25.4411 32.7933C25.9027 33.6428 26.1982 34.6153 26.3274 35.7109ZM32.098 48H27.8139L34.3416 29.0909H39.4936L46.0121 48H41.728L36.9915 33.4119H36.8438L32.098 48ZM31.8303 40.5675H41.9496V43.6882H31.8303V40.5675ZM48.288 48V29.0909H55.7482C57.1763 29.0909 58.395 29.3464 59.4045 29.8572C60.4201 30.362 61.1926 31.0791 61.7219 32.0085C62.2575 32.9318 62.5252 34.0182 62.5252 35.2678C62.5252 36.5234 62.2544 37.6037 61.7127 38.5085C61.171 39.4072 60.3862 40.0966 59.3583 40.5767C58.3365 41.0568 57.0993 41.2969 55.6467 41.2969H50.6516V38.0838H55.0004C55.7636 38.0838 56.3976 37.9792 56.9023 37.7699C57.4071 37.5606 57.7826 37.2467 58.0288 36.8281C58.2811 36.4096 58.4073 35.8894 58.4073 35.2678C58.4073 34.6399 58.2811 34.1106 58.0288 33.6797C57.7826 33.2488 57.404 32.9226 56.8931 32.701C56.3884 32.4732 55.7513 32.3594 54.9819 32.3594H52.2859V48H48.288ZM58.4996 39.3949L63.1992 48H58.7859L54.1879 39.3949H58.4996ZM71.3681 48V29.0909H78.8283C80.2563 29.0909 81.4751 29.3464 82.4846 29.8572C83.5002 30.362 84.2727 31.0791 84.802 32.0085C85.3375 32.9318 85.6053 34.0182 85.6053 35.2678C85.6053 36.5234 85.3345 37.6037 84.7928 38.5085C84.2511 39.4072 83.4663 40.0966 82.4384 40.5767C81.4166 41.0568 80.1794 41.2969 78.7267 41.2969H73.7317V38.0838H78.0804C78.8437 38.0838 79.4777 37.9792 79.9824 37.7699C80.4872 37.5606 80.8626 37.2467 81.1088 36.8281C81.3612 36.4096 81.4874 35.8894 81.4874 35.2678C81.4874 34.6399 81.3612 34.1106 81.1088 33.6797C80.8626 33.2488 80.4841 32.9226 79.9732 32.701C79.4685 32.4732 78.8314 32.3594 78.062 32.3594H75.3659V48H71.3681ZM81.5797 39.3949L86.2793 48H81.8659L77.2679 39.3949H81.5797ZM88.4306 48V29.0909H101.172V32.3871H92.4284V36.8928H100.517V40.1889H92.4284V44.7038H101.209V48H88.4306ZM120.167 29.0909V48H116.713L108.487 36.0987H108.348V48H104.35V29.0909H107.859L116.021 40.983H116.187V29.0909H120.167ZM122.749 32.3871V29.0909H138.279V32.3871H132.49V48H128.539V32.3871H122.749Z" fill="white"/>
</svg>
